<svg width="382" height="269" viewBox="0 0 382 269" fill="none" xmlns="http://www.w3.org/2000/svg">
<path d="M1.90794 0.969783C10.1211 0.742101 19.4778 0.988016 27.7923 0.986001L69.938 0.974931C78.0183 1.046 85.8625 2.3623 93.7595 3.85185C125.831 9.90132 152.309 26.7257 170.482 53.9322C183 73.0747 190.54 95.0404 192.418 117.836C193.063 124.998 193.098 133.583 192.998 140.782C192.689 169.318 183.332 197.019 166.277 219.898C163.426 223.663 159.285 228.659 155.911 231.941C145.424 242.475 134.318 249.317 121.074 255.713C93.264 269.138 64.8415 267.188 34.927 267.32L13.2801 267.415C10.0166 267.413 6.33033 267.753 3.13453 267.17C2.76478 267.103 2.26973 267.07 2.07896 266.71C1.29224 265.218 1.77255 227.499 1.75412 222.095L1.7405 53.1349L1.72161 16.8317C1.7121 13.363 1.32277 3.66337 1.90794 0.969783ZM41.5683 227.594C52.8715 227.054 64.6963 227.808 75.5758 227.076C95.538 225.66 114.349 217.2 128.654 203.206C162.791 168.101 162.481 97.8069 127.599 63.3262C108.199 44.1499 81.937 39.1612 55.9895 40.4882C51.3395 40.7259 46.273 40.2794 41.5548 40.2209L41.4843 160.551L41.514 205.813C41.5195 212.372 41.825 221.287 41.5683 227.594Z" fill="#202020"/>
<path d="M322.34 0.80244C323.79 0.956482 327.068 0.805847 328.748 0.80577L342.873 0.80259C355.348 0.790085 368.903 1.09802 381.26 0.755317C379.345 4.18484 375.678 8.98532 373.305 12.316L362.555 27.5902C356.123 36.5432 349.523 46.6339 343.143 55.8077L288.64 134.643C271.193 159.699 253.2 184.882 237.487 211.023C236.382 212.633 235.304 214.389 234.271 216.052C226.829 228.042 219.514 240.257 212.153 252.287L206.352 261.697C205.469 263.12 204.186 265.28 203.204 266.56C202.472 267.515 198.512 267.495 197.19 267.497C191.772 267.505 186.328 267.49 180.896 267.497L143.428 267.54C137.804 267.527 129.667 267.247 124.291 267.747C126.655 266.477 129.511 265.465 131.874 264.237C136.555 261.81 142.084 258.715 146.36 255.695C155.609 249.162 165.661 240.279 172.998 231.573C179.981 223.287 186.559 211.328 192.675 202.122C200.105 190.937 207.519 179.698 214.818 168.435L225.827 151.777C229.535 146.108 232.182 141.645 236.326 136.113L196.55 72.1772C187.577 57.9344 176.689 39.2622 165.091 27.3917C154.008 16.2148 140.898 7.25154 126.461 0.980962C141.9 1.22493 157.428 0.851042 172.876 0.91877C181.885 0.95827 190.919 0.998802 199.926 0.874142C202.046 0.778262 203.684 0.246519 204.978 2.16685C208.793 7.82789 211.563 14.0791 215.044 19.955C228.103 42.4307 241.521 64.6957 255.295 86.7412C257.585 90.3844 259.568 94.0292 261.938 97.6679C265.3 92.9322 267.98 88.4742 271.053 83.6249L283.538 63.7162L307.11 25.4257C312.39 16.7401 316.51 9.32782 322.34 0.80244Z" fill="#202020"/>
<path d="M294.38 147.648C296.015 148.852 305.945 163.905 307.91 166.703L342.1 215.073L365.23 247.163L375.468 261.275C377.003 263.375 378.583 265.25 380.08 267.418C372.4 267.84 362.078 267.53 354.188 267.49L333.463 267.53C329.143 267.545 324.328 267.673 320.05 267.47C317.318 264.235 312.053 255.26 309.503 251.16C301.903 238.926 294.38 226.644 286.933 214.316L274.22 193.766C272.653 191.202 269.798 187.287 268.915 184.602C270.495 181.596 274.343 176.482 276.35 173.491L288.113 156.217C289.808 153.747 292.245 149.48 294.38 147.648Z" fill="#202020"/>
<path d="M320.805 109.425C322.342 109.951 330.197 115.767 331.767 116.965C339.955 123.204 349.307 128.66 357.345 134.976L330.987 153.798C329.155 155.056 320.805 161.181 319.45 161.062C316.997 159.363 303.927 140.1 302.027 136.578C305.302 131.456 308.772 126.275 312.35 121.362C314.305 118.676 318.695 111.198 320.805 109.425Z" fill="#202020"/>
</svg>
